<svg id="Component_3_1" data-name="Component 3 – 1" xmlns="http://www.w3.org/2000/svg" width="118" height="118" viewBox="0 0 118 118">
  <path id="Path_10" data-name="Path 10" d="M59,0A59,59,0,1,1,0,59,59,59,0,0,1,59,0Z" fill="#fff" />
  <path id="Icon_metro-shopping-basket" data-name="Icon metro-shopping-basket" d="M49.964,25.021,37.505,6.376a2.767,2.767,0,0,0-2.361-1.209,2.8,2.8,0,0,0-2.361,1.209L20.325,25.021H6.7a2.853,2.853,0,0,0-2.844,2.844,3.339,3.339,0,0,0,.1.768L11.166,55a5.7,5.7,0,0,0,5.49,4.153H53.633a5.67,5.67,0,0,0,5.475-4.167l7.211-26.368a2.537,2.537,0,0,0,.114-.754,2.853,2.853,0,0,0-2.844-2.844H49.964Zm-23.353,0,8.533-12.515,8.533,12.515H26.611Zm8.533,22.755a5.689,5.689,0,1,1,5.689-5.689A5.687,5.687,0,0,1,35.145,47.776Z" transform="translate(23.855 26.839)" fill="rgba(0, 199, 129,0.75)"  />
</svg>


